<svg xmlns="http://www.w3.org/2000/svg" xmlns:xlink="http://www.w3.org/1999/xlink" width="24" height="24" viewBox="0 0 24 24">
  <defs>
    <clipPath id="clip-path">
      <rect id="Rectangle_1331" data-name="Rectangle 1331" width="24" height="24" transform="translate(65 322)" fill="#69717e"/>
    </clipPath>
  </defs>
  <g id="Mask_Group_546" data-name="Mask Group 546" transform="translate(-65 -322)" clip-path="url(#clip-path)">
    <path id="icons8-check_all" d="M5.1,2.4A2.714,2.714,0,0,0,2.4,5.1V20.7a2.714,2.714,0,0,0,2.7,2.7H20.7a2.714,2.714,0,0,0,2.7-2.7V5.1a2.714,2.714,0,0,0-2.7-2.7Zm0,1.8H20.7a.886.886,0,0,1,.9.9V20.7a.886.886,0,0,1-.9.9H5.1a.886.886,0,0,1-.9-.9V5.1A.886.886,0,0,1,5.1,4.2ZM24.6,5.565V21.3a3.3,3.3,0,0,1-3.3,3.3H5.565A2.7,2.7,0,0,0,8.1,26.4H21.3a5.106,5.106,0,0,0,5.1-5.1V8.1A2.7,2.7,0,0,0,24.6,5.565ZM17.082,8.992a.9.9,0,0,0-.619.272L11.7,14.027,9.936,12.264a.9.9,0,1,0-1.273,1.273l2.4,2.4a.9.9,0,0,0,1.273,0l5.4-5.4a.9.9,0,0,0-.654-1.545Z" transform="translate(62.6 319.6)" fill="#69717e"/>
  </g>
</svg>
