<svg xmlns="http://www.w3.org/2000/svg" xmlns:xlink="http://www.w3.org/1999/xlink" width="24" height="24" viewBox="0 0 24 24">
  <defs>
    <clipPath id="clip-path">
      <rect id="Rectangle_1332" data-name="Rectangle 1332" width="24" height="24" transform="translate(65 322)" fill="#69717e"/>
    </clipPath>
  </defs>
  <g id="Mask_Group_542" data-name="Mask Group 542" transform="translate(-65 -322)" clip-path="url(#clip-path)">
    <path id="icons8-warehouse" d="M15.169,3.17a3.311,3.311,0,0,0-2.052.709h0L5.6,9.8a4.743,4.743,0,0,0-1.807,3.723V24.958A2.227,2.227,0,0,0,6,27.17H24.333a2.227,2.227,0,0,0,2.212-2.212V13.525A4.743,4.743,0,0,0,24.738,9.8L17.22,3.879A3.311,3.311,0,0,0,15.169,3.17Zm0,1.891a1.418,1.418,0,0,1,.879.307l7.518,5.923a2.842,2.842,0,0,1,1.084,2.233V24.958a.3.3,0,0,1-.316.316h-1.58V20.541a2.227,2.227,0,0,0-2.212-2.212h-.948V14.221a2.227,2.227,0,0,0-2.212-2.212H12.957a2.227,2.227,0,0,0-2.212,2.212v4.108H9.8a2.227,2.227,0,0,0-2.212,2.212v4.733H6a.3.3,0,0,1-.316-.316V13.525A2.843,2.843,0,0,1,6.772,11.29L14.29,5.369A1.418,1.418,0,0,1,15.169,5.061ZM12.957,13.9h4.424a.3.3,0,0,1,.316.316v4.108H12.641V14.221A.3.3,0,0,1,12.957,13.9ZM9.8,20.225h4.424v5.049H9.481V20.541A.3.3,0,0,1,9.8,20.225Zm6.32,0h4.424a.3.3,0,0,1,.316.316v4.733h-4.74Z" transform="translate(61.832 318.83)" fill="#69717e"/>
  </g>
</svg>
