<svg xmlns="http://www.w3.org/2000/svg" xmlns:xlink="http://www.w3.org/1999/xlink" width="24" height="24" viewBox="0 0 24 24">
  <defs>
    <clipPath id="clip-path">
      <rect id="Rectangle_1239" data-name="Rectangle 1239" width="24" height="24" transform="translate(119 712)" fill="#69717e"/>
    </clipPath>
  </defs>
  <g id="Mask_Group_592" data-name="Mask Group 592" transform="translate(-119 -712)" clip-path="url(#clip-path)">
    <path id="icons8-send_package" d="M5.513,3.243A1.636,1.636,0,0,0,3.892,4.865V9.405a1.641,1.641,0,0,0,1.3,1.589v6.844a.973.973,0,1,0,1.946,0V11.027H24v6.811a.973.973,0,1,0,1.946,0V10.994a1.641,1.641,0,0,0,1.3-1.589V4.865a1.636,1.636,0,0,0-1.622-1.622Zm.324,1.946H25.3V9.081H5.838Zm6.811,8.432a.973.973,0,1,0,0,1.946h5.838a.973.973,0,1,0,0-1.946ZM4.9,20.1q-.048,0-.1,0a.973.973,0,0,0-.818,1.4A9.841,9.841,0,0,0,6.4,24.421a12.73,12.73,0,0,0,8.373,2.823,13.836,13.836,0,0,0,9.878-3.9V26.27a.973.973,0,1,0,1.946,0V21.081a.973.973,0,0,0-.973-.973H20.432a.973.973,0,1,0,0,1.946H23.26A11.7,11.7,0,0,1,14.771,25.3a10.639,10.639,0,0,1-7.121-2.367,7.45,7.45,0,0,1-1.905-2.266A.973.973,0,0,0,4.9,20.1Z" transform="translate(115.436 708.757)" fill="#69717e"/>
  </g>
</svg>
