<svg xmlns="http://www.w3.org/2000/svg" xmlns:xlink="http://www.w3.org/1999/xlink" width="24" height="24" viewBox="0 0 24 24">
  <defs>
    <clipPath id="clip-path">
      <rect id="Rectangle_1332" data-name="Rectangle 1332" width="24" height="24" transform="translate(65 322)" fill="#69717e"/>
    </clipPath>
  </defs>
  <g id="Mask_Group_545" data-name="Mask Group 545" transform="translate(-65 -322)" clip-path="url(#clip-path)">
    <path id="icons8-move_selection_to_top_row" d="M15.975,3.983A1,1,0,0,0,15.829,4h-7.5A3.68,3.68,0,0,0,4.664,7.662v3.331a1,1,0,0,0,1,1H15.826a1,1,0,0,0,.324,0H26.318a1,1,0,0,0,1-1V7.662A3.68,3.68,0,0,0,23.652,4h-7.5a1,1,0,0,0-.18-.014ZM8.328,6h6.663v4H6.663V7.662A1.651,1.651,0,0,1,8.328,6ZM16.99,6h6.663a1.651,1.651,0,0,1,1.666,1.666V9.994H16.99ZM5.648,13.311a1,1,0,0,0-.984,1.014v3.331a1,1,0,1,0,2,0V14.325a1,1,0,0,0-1.015-1.014Zm20.654,0a1,1,0,0,0-.984,1.014v3.331a1,1,0,1,0,2,0V14.325A1,1,0,0,0,26.3,13.311Zm-10.326.347a1,1,0,0,0-.692.293l-2.332,2.332A1,1,0,1,0,14.365,17.7l.626-.626v5.916a1,1,0,1,0,2,0V17.071l.626.626a1,1,0,1,0,1.413-1.413L16.7,13.951a1,1,0,0,0-.721-.293ZM5.663,19.988a1,1,0,0,0-1,1v3.331a3.68,3.68,0,0,0,3.664,3.664H23.652a3.68,3.68,0,0,0,3.664-3.664V20.987a1,1,0,0,0-1-1H18.655v2h6.663v2.332a1.651,1.651,0,0,1-1.666,1.666H8.328a1.651,1.651,0,0,1-1.666-1.666V21.987h6.663v-2Z" transform="translate(61.01 318.017)" fill="#69717e"/>
  </g>
</svg>
