<svg xmlns="http://www.w3.org/2000/svg" xmlns:xlink="http://www.w3.org/1999/xlink" width="24" height="24" viewBox="0 0 24 24">
  <defs>
    <clipPath id="clip-path">
      <rect id="Rectangle_1331" data-name="Rectangle 1331" width="24" height="24" transform="translate(119 712)" fill="#69717e"/>
    </clipPath>
  </defs>
  <g id="Mask_Group_593" data-name="Mask Group 593" transform="translate(-119 -712)" clip-path="url(#clip-path)">
    <path id="icons8-metamorphose" d="M3.3,2.4a.9.9,0,0,0-.9.9v9a.9.9,0,0,0,.9.9H6.909c0,.042-.009.111-.009.15a16.9,16.9,0,0,0,.273,2.564,12.117,12.117,0,0,0,.33,1.444A2.527,2.527,0,0,0,8.13,18.57a2.193,2.193,0,0,0,.882.516,7.9,7.9,0,0,0,1.011.291c.461.1.943.182,1.412.248a7.5,7.5,0,1,0,8.188-8.188c-.066-.469-.144-.951-.248-1.412a7.9,7.9,0,0,0-.291-1.011,2.193,2.193,0,0,0-.516-.882A2.527,2.527,0,0,0,17.358,7.5a12.117,12.117,0,0,0-1.444-.33A16.9,16.9,0,0,0,13.35,6.9c-.039,0-.108.009-.15.009V3.3a.9.9,0,0,0-.9-.9Zm.9,1.8h7.2V7.086c-.208.03-.4.049-.614.087a12.117,12.117,0,0,0-1.444.33A2.527,2.527,0,0,0,8.13,8.13,2.527,2.527,0,0,0,7.5,9.342a12.117,12.117,0,0,0-.33,1.444c-.037.214-.057.406-.087.614H4.2Zm9.15,4.5a17.342,17.342,0,0,1,2.255.246,10.7,10.7,0,0,1,1.225.278,3.091,3.091,0,0,1,.464.2,1.5,1.5,0,0,1,.105.221,6.444,6.444,0,0,1,.221.78c.075.332.139.7.195,1.065a7.512,7.512,0,0,0-6.327,6.327c-.366-.056-.733-.119-1.065-.195a6.444,6.444,0,0,1-.78-.221,1.5,1.5,0,0,1-.221-.105,3.091,3.091,0,0,1-.2-.464A10.7,10.7,0,0,1,8.946,15.6,17.342,17.342,0,0,1,8.7,13.35,17.342,17.342,0,0,1,8.946,11.1a10.7,10.7,0,0,1,.278-1.225,2.934,2.934,0,0,1,.192-.455,2.934,2.934,0,0,1,.455-.192A10.7,10.7,0,0,1,11.1,8.946,17.342,17.342,0,0,1,13.35,8.7ZM18.9,13.2h0a5.7,5.7,0,1,1-5.7,5.7q0-.025,0-.05A5.682,5.682,0,0,1,18.84,13.2l.056,0Z" transform="translate(116.6 709.6)" fill="#69717e"/>
  </g>
</svg>
