<svg xmlns="http://www.w3.org/2000/svg" xmlns:xlink="http://www.w3.org/1999/xlink" width="24" height="24" viewBox="0 0 24 24">
  <defs>
    <clipPath id="clip-path">
      <rect id="Rectangle_6" data-name="Rectangle 6" width="24" height="24" transform="translate(29 712)" fill="#69717e"/>
    </clipPath>
  </defs>
  <g id="Mask_Group_590" data-name="Mask Group 590" transform="translate(-29 -712)" clip-path="url(#clip-path)">
    <path id="icons8-list_of_parts" d="M7.895,3.158A2.857,2.857,0,0,0,5.053,6V17.053H4.737A.947.947,0,0,0,3.789,18v5.053a4.12,4.12,0,0,0,4.105,4.105H22.421a4.12,4.12,0,0,0,4.105-4.105V18a.947.947,0,0,0-.947-.947h-.316V6a2.857,2.857,0,0,0-2.842-2.842Zm0,1.895H22.421A.933.933,0,0,1,23.368,6V17.053H18.9a.947.947,0,0,0-.947.947,2.658,2.658,0,0,1-.892,2.132,2.895,2.895,0,0,1-3.8,0A2.658,2.658,0,0,1,12.366,18a.947.947,0,0,0-.947-.947H6.947V6A.933.933,0,0,1,7.895,5.053Zm2.526,3.158a.947.947,0,1,0,0,1.895h5.684a.947.947,0,1,0,0-1.895Zm9.474,0a.947.947,0,1,0,.947.947A.947.947,0,0,0,19.895,8.211Zm-9.474,4.421a.947.947,0,1,0,0,1.895h5.684a.947.947,0,1,0,0-1.895Zm9.474,0a.947.947,0,1,0,.947.947A.947.947,0,0,0,19.895,12.632ZM5.684,18.947h.16a.948.948,0,0,0,.307,0H10.67A4.606,4.606,0,0,0,12,21.553a4.789,4.789,0,0,0,6.306,0,4.606,4.606,0,0,0,1.335-2.605H24.16a.948.948,0,0,0,.307,0h.164v4.105a2.2,2.2,0,0,1-2.211,2.211H7.895a2.2,2.2,0,0,1-2.211-2.211Z" transform="translate(25.842 708.842)" fill="#69717e"/>
  </g>
</svg>
