<svg xmlns="http://www.w3.org/2000/svg" xmlns:xlink="http://www.w3.org/1999/xlink" width="24" height="24" viewBox="0 0 24 24">
  <defs>
    <clipPath id="clip-path">
      <rect id="Rectangle_1239" data-name="Rectangle 1239" width="24" height="24" transform="translate(65 322)" fill="#69717e"/>
    </clipPath>
  </defs>
  <g id="Mask_Group_540" data-name="Mask Group 540" transform="translate(-65 -322)" clip-path="url(#clip-path)">
    <path id="icons8-downloads" d="M7.667,4A3.682,3.682,0,0,0,4,7.667V24.333A3.682,3.682,0,0,0,7.667,28H24.333A3.682,3.682,0,0,0,28,24.333V7.667A3.682,3.682,0,0,0,24.333,4H19.947a1,1,0,0,0-1,1,2.806,2.806,0,0,1-.941,2.25,3.056,3.056,0,0,1-4.01,0A2.806,2.806,0,0,1,13.053,5a1,1,0,0,0-1-1Zm0,2h3.6a4.862,4.862,0,0,0,1.409,2.75,5.056,5.056,0,0,0,6.656,0A4.862,4.862,0,0,0,20.737,6h3.6A1.652,1.652,0,0,1,26,7.667V24.333A1.652,1.652,0,0,1,24.333,26H7.667A1.652,1.652,0,0,1,6,24.333V7.667A1.652,1.652,0,0,1,7.667,6Zm8.318,6.652A1,1,0,0,0,15,13.667v6.253l-2.293-2.293a1,1,0,1,0-1.414,1.414l3.914,3.914a1,1,0,0,0,1.591-.005l3.909-3.909a1,1,0,1,0-1.414-1.414L17,19.919V13.667a1,1,0,0,0-1.016-1.014Z" transform="translate(61 318)" fill="#69717e"/>
  </g>
</svg>
