<svg xmlns="http://www.w3.org/2000/svg" xmlns:xlink="http://www.w3.org/1999/xlink" width="24" height="24" viewBox="0 0 24 24">
  <defs>
    <clipPath id="clip-path">
      <rect id="Rectangle_1334" data-name="Rectangle 1334" width="24" height="24" transform="translate(65 322)" fill="#69717e"/>
    </clipPath>
  </defs>
  <g id="Mask_Group_544" data-name="Mask Group 544" transform="translate(-65 -322)" clip-path="url(#clip-path)">
    <path id="icons8-settings" d="M14.4,2.4a12.024,12.024,0,0,0-2.729.322.9.9,0,0,0-.69.779l-.191,1.741A1.8,1.8,0,0,1,8.276,6.694h0l-1.6-.7a.9.9,0,0,0-1.02.209,11.978,11.978,0,0,0-2.74,4.723.9.9,0,0,0,.329.987l1.419,1.041a1.8,1.8,0,0,1,0,2.9L3.245,16.891a.9.9,0,0,0-.329.987A11.974,11.974,0,0,0,5.655,22.6a.9.9,0,0,0,1.02.207l1.6-.7a1.8,1.8,0,0,1,2.515,1.452L10.98,25.3a.9.9,0,0,0,.689.778,11.7,11.7,0,0,0,5.46,0,.9.9,0,0,0,.69-.779l.191-1.741a1.8,1.8,0,0,1,2.514-1.452l1.6.7a.9.9,0,0,0,1.02-.207,11.982,11.982,0,0,0,2.74-4.724.9.9,0,0,0-.329-.987l-1.419-1.039a1.8,1.8,0,0,1,0-2.9l1.419-1.039a.9.9,0,0,0,.329-.987A11.982,11.982,0,0,0,23.145,6.2a.9.9,0,0,0-1.02-.207l-1.6.7a1.8,1.8,0,0,1-2.514-1.452L17.82,3.5a.9.9,0,0,0-.689-.778A12,12,0,0,0,14.4,2.4Zm0,1.8a9.8,9.8,0,0,1,1.709.2l.112,1.035a3.6,3.6,0,0,0,5.029,2.9l.952-.418a10.116,10.116,0,0,1,1.713,2.954l-.844.619a3.6,3.6,0,0,0,0,5.805l.844.619A10.116,10.116,0,0,1,22.2,20.876l-.952-.418a3.6,3.6,0,0,0-5.029,2.9L16.109,24.4a9.831,9.831,0,0,1-1.709.2,9.8,9.8,0,0,1-1.709-.2l-.113-1.035a3.6,3.6,0,0,0-5.029-2.9l-.952.418a10.109,10.109,0,0,1-1.713-2.954l.844-.619a3.6,3.6,0,0,0,0-5.807l-.844-.619A10.111,10.111,0,0,1,6.6,7.923l.95.418a3.6,3.6,0,0,0,5.029-2.9L12.691,4.4A9.832,9.832,0,0,1,14.4,4.2Zm0,5.4a4.8,4.8,0,1,0,4.8,4.8A4.814,4.814,0,0,0,14.4,9.6Zm0,1.8a3,3,0,1,1-3,3A2.986,2.986,0,0,1,14.4,11.4Z" transform="translate(62.6 319.6)" fill="#69717e"/>
  </g>
</svg>
